<svg xmlns="http://www.w3.org/2000/svg" viewBox="0 0 78.84 90"><defs><style>.cls-1{fill:#c61d90;}.cls-2{fill:#00afdc;}</style></defs><title>Ресурс 1</title><g id="Слой_2" data-name="Слой 2"><g id="Слой_1-2" data-name="Слой 1"><path class="cls-1" d="M78.17.67A2.24,2.24,0,0,0,76.56,0H70.11a2.21,2.21,0,0,0-1.64.67,2.27,2.27,0,0,0-.65,1.62V56.78c0,.46,0,.93,0,1.38v2.53q0,21.06-12.34,28.77,23.37-3.7,23.37-32.68V2.29A2.2,2.2,0,0,0,78.17.67ZM32.9,74.79q-4.45-5.88-4.45-18V2.29A2.18,2.18,0,0,0,27.77.67,2.2,2.2,0,0,0,26.17,0H19.72a2.19,2.19,0,0,0-1.64.67,2.27,2.27,0,0,0-.65,1.62V56.78c0,.7,0,1.39,0,2.07q.95,7.2,4.06,11.32,3.82,5.07,12.37,5.77A12.21,12.21,0,0,1,32.9,74.79Z"/><path class="cls-2" d="M61.41,56.78Q61.41,90,30.7,90T0,56.78V2.29A2.26,2.26,0,0,1,.64.67,2.22,2.22,0,0,1,2.29,0H8.73a2.24,2.24,0,0,1,1.61.67A2.21,2.21,0,0,1,11,2.29V56.78q0,12.12,4.45,18T30.7,80.68q10.32,0,15-5.53t4.69-18.37V2.29A2.26,2.26,0,0,1,51,.67,2.22,2.22,0,0,1,52.68,0h6.44a2.22,2.22,0,0,1,1.61.67,2.21,2.21,0,0,1,.68,1.62Z"/></g></g></svg>