<svg xmlns="http://www.w3.org/2000/svg" viewBox="0 0 79 90"><g data-name="Слой 2"><g data-name="Слой 1"><path d="M78.17.67A2.24 2.24 0 0076.56 0h-6.45a2.21 2.21 0 00-1.64.67 2.27 2.27 0 00-.65 1.62v58.4q0 21.06-12.34 28.77 23.37-3.7 23.37-32.68V2.29a2.2 2.2 0 00-.68-1.62zM32.9 74.79q-4.45-5.88-4.45-18V2.29a2.18 2.18 0 00-.68-1.62 2.2 2.2 0 00-1.6-.67h-6.45a2.19 2.19 0 00-1.64.67 2.27 2.27 0 00-.65 1.62v56.56q.95 7.2 4.06 11.32 3.82 5.07 12.37 5.77a12.21 12.21 0 01-.96-1.15z" fill="#c61d90"/><path d="M61.41 56.78Q61.41 90 30.7 90T0 56.78V2.29A2.26 2.26 0 01.64.67 2.22 2.22 0 012.29 0h6.44a2.24 2.24 0 011.61.67A2.21 2.21 0 0111 2.29v54.49q0 12.12 4.45 18t15.25 5.9q10.32 0 15-5.53t4.69-18.37V2.29A2.26 2.26 0 0151 .67 2.22 2.22 0 0152.68 0h6.44a2.22 2.22 0 011.61.67 2.21 2.21 0 01.68 1.62z" fill="#00afdc"/></g></g></svg>